<svg width="43" height="43" viewBox="0 0 43 43" fill="none" xmlns="http://www.w3.org/2000/svg">
<path d="M26.5019 23.0864C26.5958 23.1803 26.7188 23.2279 26.843 23.2279C26.942 23.2279 27.0422 23.1966 27.1277 23.1341C31.2305 20.1177 34.8743 16.5236 38.2671 12.1459C42.4363 6.75955 43.6948 3.17546 42.0076 1.496C41.3856 0.86951 40.5509 0.523926 39.6571 0.523926C38.7643 0.523926 37.9281 0.86846 37.3016 1.49493L21.4514 17.3541C21.2636 17.5415 21.2636 17.846 21.4514 18.0338L26.5019 23.0864ZM37.9813 2.17552C38.426 1.73086 39.0205 1.4861 39.656 1.4861C40.2908 1.4861 40.8836 1.73016 41.3262 2.17586C42.5618 3.40551 41.169 6.82513 37.5057 11.5566C34.2144 15.8037 30.832 19.168 26.8878 22.1131L22.47 17.6943L37.9813 2.17552Z" fill="#898989"/>
<path d="M42.0286 37.2449L29.458 24.6823C29.2331 24.4584 28.9341 24.3353 28.6167 24.3353C28.2993 24.3353 27.9996 24.4584 27.775 24.6823L27.6165 24.8408L17.6884 14.927L18.3124 14.3026C18.9385 13.6761 19.2834 12.8413 19.2834 11.9506C19.2834 11.0599 18.9385 10.2255 18.3124 9.59901L9.26807 0.555565C8.90963 0.197129 8.43229 0 7.92397 0C7.41569 0 6.93801 0.197476 6.57987 0.555565C5.83865 1.29678 5.83865 2.50247 6.57987 3.24332L14.2757 10.9392L13.9524 11.2702L6.25654 3.56665C5.89811 3.20786 5.41938 3.01039 4.90835 3.01039C4.39763 3.01039 3.91892 3.20786 3.55802 3.56908C2.82689 4.31064 2.82689 5.51776 3.56045 6.26208L11.2553 13.9569L10.9337 14.2837L3.24474 6.58542C2.88595 6.22698 2.40757 6.02985 1.89716 6.02985C1.3854 6.02985 0.908445 6.22837 0.55591 6.58542C-0.185303 7.32698 -0.185303 8.53339 0.55591 9.27495L9.60024 18.3193C10.2267 18.9458 11.06 19.2903 11.9484 19.2903C12.836 19.2903 13.67 18.9458 14.2958 18.3193L15.0002 17.6156L24.9211 27.5366L24.7671 27.6903C24.5363 27.9159 24.4087 28.2167 24.4087 28.5372C24.4087 28.8577 24.5363 29.1588 24.763 29.3796L37.3318 41.9484C37.9544 42.5752 38.7881 42.9208 39.6781 42.9208C40.5678 42.9208 41.4032 42.5759 42.029 41.9505C42.6551 41.324 43 40.4886 43 39.5975C42.999 38.7071 42.6541 37.8717 42.0283 37.2452L42.0286 37.2449ZM41.3486 41.2691C40.9039 41.7141 40.3105 41.9585 39.6774 41.9585C39.045 41.9585 38.454 41.7148 38.0121 41.2691L25.438 28.6949C25.3935 28.6525 25.3691 28.5962 25.3691 28.5371C25.3691 28.4777 25.3935 28.4213 25.4414 28.3751L25.9393 27.8783C26.03 27.7886 26.0804 27.6659 26.0808 27.5383C26.0808 27.4107 26.03 27.288 25.9396 27.1972L15.3387 16.5954C15.2486 16.5053 15.1259 16.4542 14.9986 16.4542C14.8711 16.4542 14.749 16.505 14.6583 16.5954L13.6143 17.6391C13.1696 18.0837 12.5776 18.3285 11.9466 18.3285C11.3152 18.3285 10.7232 18.0837 10.2789 17.6391L1.23455 8.59564C0.868112 8.2292 0.868112 7.63264 1.23698 7.26373C1.40977 7.08816 1.64375 6.99221 1.8958 6.99221C2.14959 6.99221 2.38635 7.08956 2.56331 7.26582L10.5946 15.3073C10.6854 15.398 10.8095 15.4474 10.9371 15.4484C11.065 15.4481 11.1884 15.3966 11.2781 15.3048L12.2745 14.2921C12.4598 14.1037 12.4588 13.8012 12.2721 13.6148L4.24209 5.58486C3.88435 5.22156 3.88435 4.60789 4.24 4.24708C4.41627 4.07012 4.65372 3.97313 4.90751 3.97313C5.16166 3.97313 5.3991 4.07047 5.57537 4.24708L13.6151 12.2944C13.7058 12.3855 13.8278 12.4394 13.9579 12.4356C14.0865 12.4352 14.2092 12.3827 14.2993 12.2909L15.2956 11.2723C15.4799 11.0839 15.4785 10.7818 15.2921 10.5961L7.25976 2.56372C6.89333 2.19798 6.89333 1.60242 7.25976 1.236C7.43603 1.05904 7.67244 0.962044 7.92414 0.962044C8.17585 0.962044 8.41157 1.05939 8.58852 1.23565L17.6329 10.28C18.0775 10.7246 18.3223 11.3181 18.3223 11.9515C18.3223 12.585 18.0775 13.1788 17.6329 13.6231L16.6681 14.5878C16.578 14.6786 16.5276 14.8006 16.5276 14.9282C16.5276 15.0558 16.5784 15.1778 16.6691 15.2686L27.2781 25.8624C27.4665 26.0498 27.7704 26.0498 27.9578 25.8621L28.4563 25.3642C28.5137 25.3065 28.5829 25.2978 28.6183 25.2978C28.6538 25.2978 28.7219 25.3061 28.7803 25.3642L41.35 37.9259C41.7947 38.3709 42.0394 38.9647 42.0394 39.5981C42.0387 40.2326 41.794 40.8264 41.3493 41.2704L41.3486 41.2691Z" fill="#898989"/>
<path d="M18.1056 21.3701C18.0156 21.2794 17.8932 21.229 17.7653 21.229C17.6377 21.229 17.5156 21.2805 17.4252 21.3705L17.0727 21.7234C16.6138 22.1938 16.6131 22.9329 17.0762 23.4099L17.2267 23.5614L15.9439 24.8443L15.7798 24.683C15.5548 24.4591 15.2565 24.336 14.9381 24.336C14.62 24.336 14.3217 24.4591 14.0964 24.683L1.52493 37.2473C0.235478 38.5459 0.239928 40.6565 1.53328 41.9495C2.15594 42.577 2.98863 42.9219 3.87927 42.9219C4.76928 42.9219 5.60438 42.577 6.23015 41.9516L18.8052 29.3766C19.2533 28.9145 19.2533 28.1629 18.8052 27.7009C18.8027 27.6984 18.7996 27.696 18.7968 27.6929L18.6459 27.5444L19.9302 26.2654L20.2132 26.548C20.4423 26.7709 20.7399 26.8929 21.0501 26.8929C21.2583 26.8929 21.4662 26.8362 21.6557 26.726C21.7565 26.6662 21.8591 26.6061 21.9613 26.5456C22.0611 26.4872 22.1598 26.4295 22.2568 26.3711C22.384 26.2953 22.4692 26.1646 22.488 26.0178C22.5061 25.8704 22.456 25.7227 22.351 25.6177L18.1056 21.3701ZM21.1678 25.8961C21.0715 25.952 20.9613 25.9319 20.8883 25.8616L20.2719 25.2442C20.0845 25.0564 19.7803 25.0558 19.5922 25.2438L17.6234 27.205C17.5323 27.2957 17.4812 27.4191 17.4819 27.5474C17.4819 27.6764 17.5344 27.7991 17.6258 27.8892L18.1181 28.3731C18.204 28.4642 18.203 28.6155 18.1206 28.7006L5.55088 41.2703C5.10622 41.7153 4.51312 41.9601 3.8797 41.9601C3.2473 41.9601 2.65664 41.716 2.21546 41.2703C1.29447 40.3497 1.29135 38.8492 2.20711 37.9269L14.7768 25.3643C14.8345 25.3059 14.9033 25.2976 14.9388 25.2976C14.9746 25.2976 15.0431 25.3059 15.1039 25.3664L15.6105 25.865C15.7989 26.0499 16.101 26.0489 16.2877 25.8618L18.2478 23.902C18.4352 23.7136 18.4352 23.4101 18.2478 23.2223L17.7628 22.736C17.6683 22.6383 17.6676 22.4922 17.7583 22.3991L17.7663 22.3911L21.2328 25.858C21.2102 25.8705 21.1887 25.8823 21.1678 25.8958L21.1678 25.8961Z" fill="#898989"/>
</svg>
