<svg width="44" height="43" viewBox="0 0 44 43" fill="none" xmlns="http://www.w3.org/2000/svg">
<circle cx="21.72" cy="21.344" r="21.344" fill="white"/>
<path d="M21.72 13.248C24.1197 13.248 24.4191 13.2569 25.3606 13.301C26.3012 13.3452 26.9415 13.4927 27.505 13.7117C28.0879 13.9361 28.5789 14.2399 29.07 14.7301C29.5191 15.1716 29.8666 15.7056 30.0883 16.2951C30.3065 16.8577 30.4548 17.4989 30.499 18.4395C30.5405 19.381 30.552 19.6804 30.552 22.08C30.552 24.4797 30.5432 24.7791 30.499 25.7206C30.4548 26.6612 30.3065 27.3015 30.0883 27.865C29.8672 28.4548 29.5196 28.989 29.07 29.43C28.6284 29.879 28.0943 30.2265 27.505 30.4484C26.9424 30.6665 26.3012 30.8149 25.3606 30.8591C24.4191 30.9006 24.1197 30.912 21.72 30.912C19.3203 30.912 19.0209 30.9032 18.0794 30.8591C17.1388 30.8149 16.4985 30.6665 15.935 30.4484C15.3454 30.2271 14.8112 29.8795 14.37 29.43C13.9208 28.9886 13.5733 28.4545 13.3517 27.865C13.1326 27.3024 12.9852 26.6612 12.941 25.7206C12.8995 24.7791 12.888 24.4797 12.888 22.08C12.888 19.6804 12.8968 19.381 12.941 18.4395C12.9852 17.498 13.1326 16.8586 13.3517 16.2951C13.5727 15.7053 13.9203 15.1711 14.37 14.7301C14.8113 14.2807 15.3454 13.9332 15.935 13.7117C16.4985 13.4927 17.138 13.3452 18.0794 13.301C19.0209 13.2595 19.3203 13.248 21.72 13.248ZM21.72 17.664C20.5488 17.664 19.4256 18.1293 18.5974 18.9575C17.7693 19.7856 17.304 20.9089 17.304 22.08C17.304 23.2512 17.7693 24.3745 18.5974 25.2026C19.4256 26.0308 20.5488 26.496 21.72 26.496C22.8912 26.496 24.0144 26.0308 24.8426 25.2026C25.6707 24.3745 26.136 23.2512 26.136 22.08C26.136 20.9089 25.6707 19.7856 24.8426 18.9575C24.0144 18.1293 22.8912 17.664 21.72 17.664ZM27.4608 17.4432C27.4608 17.1504 27.3445 16.8696 27.1374 16.6626C26.9304 16.4556 26.6496 16.3392 26.3568 16.3392C26.064 16.3392 25.7832 16.4556 25.5762 16.6626C25.3691 16.8696 25.2528 17.1504 25.2528 17.4432C25.2528 17.736 25.3691 18.0169 25.5762 18.2239C25.7832 18.4309 26.064 18.5472 26.3568 18.5472C26.6496 18.5472 26.9304 18.4309 27.1374 18.2239C27.3445 18.0169 27.4608 17.736 27.4608 17.4432ZM21.72 19.4304C22.4227 19.4304 23.0967 19.7096 23.5936 20.2065C24.0904 20.7034 24.3696 21.3773 24.3696 22.08C24.3696 22.7828 24.0904 23.4567 23.5936 23.9536C23.0967 24.4505 22.4227 24.7296 21.72 24.7296C21.0173 24.7296 20.3433 24.4505 19.8464 23.9536C19.3496 23.4567 19.0704 22.7828 19.0704 22.08C19.0704 21.3773 19.3496 20.7034 19.8464 20.2065C20.3433 19.7096 21.0173 19.4304 21.72 19.4304Z" fill="#A30E21"/>
</svg>
