<svg width="44" height="43" viewBox="0 0 44 43" fill="none" xmlns="http://www.w3.org/2000/svg">
<circle cx="22.032" cy="21.344" r="21.344" fill="white"/>
<path d="M32.336 17.1448C31.6858 17.4403 30.985 17.6345 30.2589 17.7274C31.0019 17.2799 31.5761 16.5706 31.8463 15.7178C31.1455 16.14 30.3686 16.4355 29.5496 16.6044C28.8826 15.8782 27.9453 15.4561 26.8814 15.4561C24.8972 15.4561 23.276 17.0772 23.276 19.0784C23.276 19.3654 23.3098 19.6441 23.3689 19.9058C20.363 19.7538 17.6864 18.31 15.9048 16.1231C15.5923 16.655 15.415 17.2799 15.415 17.9385C15.415 19.1966 16.0483 20.3111 17.0278 20.9444C16.4283 20.9444 15.871 20.7755 15.3813 20.5222V20.5475C15.3813 22.3038 16.6309 23.773 18.2859 24.1023C17.7545 24.2477 17.1967 24.2679 16.6562 24.1614C16.8856 24.8812 17.3347 25.511 17.9405 25.9624C18.5463 26.4137 19.2784 26.6638 20.0337 26.6776C18.7533 27.6912 17.1662 28.2391 15.5332 28.2312C15.2462 28.2312 14.9591 28.2143 14.672 28.1806C16.2763 29.2107 18.1845 29.8102 20.2279 29.8102C26.8814 29.8102 30.5375 24.2881 30.5375 19.5005C30.5375 19.3401 30.5375 19.1881 30.5291 19.0277C31.2383 18.5211 31.8463 17.8794 32.336 17.1448Z" fill="#A30E21"/>
</svg>
